<?xml version="1.0" encoding="UTF-8"?>
<svg id="Layer_2" data-name="Layer 2" xmlns="http://www.w3.org/2000/svg" xmlns:xlink="http://www.w3.org/1999/xlink" viewBox="0 0 2049.33 5615.28">
  <defs>
    <style>
      .cls-1 {
        fill: none;
      }

      .cls-2 {
        clip-path: url(#clippath);
      }

      .cls-3 {
        fill: #ecb686;
      }

      .cls-4 {
        fill: #eaf2f8;
      }

      .cls-5 {
        fill: #eeb492;
      }

      .cls-6 {
        fill: #746856;
      }

      .cls-7 {
        fill: #929296;
      }

      .cls-8 {
        fill: #8489ad;
      }

      .cls-9 {
        fill: #938778;
      }

      .cls-10 {
        fill: #b5b1a9;
      }

      .cls-11 {
        fill: #b8bbb6;
      }

      .cls-12 {
        fill: #c2bfb5;
      }

      .cls-13 {
        fill: #666b84;
      }

      .cls-14 {
        fill: #ceccd3;
      }

      .cls-15 {
        fill: #b1b1b2;
      }

      .cls-16 {
        fill: #dadfe5;
      }

      .cls-17, .cls-18 {
        fill: #bbbcdb;
      }

      .cls-19 {
        fill: #da9d6e;
      }

      .cls-20, .cls-21 {
        fill: #151111;
      }

      .cls-22 {
        fill: #141311;
      }

      .cls-23 {
        fill: #171514;
      }

      .cls-24 {
        fill: #171518;
      }

      .cls-25 {
        fill: #171613;
      }

      .cls-26 {
        fill: #161614;
      }

      .cls-27 {
        fill: #1e1f1e;
      }

      .cls-28 {
        fill: #1e1a18;
      }

      .cls-29 {
        fill: #1e1b1e;
      }

      .cls-30 {
        fill: #231f20;
      }

      .cls-31 {
        fill: #20150d;
      }

      .cls-32 {
        fill: #090a0a;
      }

      .cls-33 {
        fill: #070808;
      }

      .cls-34 {
        fill: #1b1614;
      }

      .cls-35 {
        fill: #1c1511;
      }

      .cls-36 {
        fill: #181314;
      }

      .cls-37 {
        fill: #0a0c0b;
      }

      .cls-38 {
        fill: #6f604d;
      }

      .cls-39 {
        fill: #9a9d9e;
      }

      .cls-40 {
        fill: #635b55;
      }

      .cls-41 {
        fill: #646c82;
      }

      .cls-42 {
        fill: #29232c;
      }

      .cls-43 {
        fill: #595f76;
      }

      .cls-44 {
        fill: #565166;
      }

      .cls-45 {
        fill: #2f2725;
      }

      .cls-46 {
        fill: #625f51;
      }

      .cls-47 {
        fill: #5d6b85;
      }

      .cls-48 {
        fill: #7b7777;
      }

      .cls-49 {
        clip-path: url(#clippath-1);
      }

      .cls-18 {
        stroke: #5a6076;
        stroke-miterlimit: 10;
      }

      .cls-50 {
        fill: #da876c;
        opacity: .15;
      }

      .cls-51 {
        fill: #9b674c;
        opacity: .16;
      }

      .cls-52, .cls-53 {
        opacity: .85;
      }

      .cls-54 {
        fill: #564131;
        opacity: .69;
      }

      .cls-21 {
        opacity: .9;
      }

      .cls-55 {
        fill: #fce6e0;
        opacity: .82;
      }

      .cls-53 {
        fill: #e1b89e;
      }

      .cls-56 {
        fill: #a3323b;
        opacity: .77;
      }

      .cls-57 {
        fill: #66473b;
        opacity: .72;
      }

      .cls-58 {
        fill: #6f402b;
        opacity: .42;
      }

      .cls-59 {
        fill: #f5cdba;
        opacity: .67;
      }
    </style>
    <clipPath id="clippath">
      <path class="cls-1" d="m876.53,490.64c4.3-3.37,8.6-6.74,12.9-10.11,3.72-2.31,11.15-6.23,21.34-7.08,8.51-.71,15.34,1.02,19.3,2.35,8.41,3.27,16.82,6.53,25.23,9.8,4.27,2.29,9.47,4.68,15.53,6.72,5.16,1.74,9.95,2.89,14.16,3.66-7.75-.15-15.82-.12-24.18.14-14.43.45-28,1.52-40.64,3l-41.35.43c-1.18.19-2.55.52-4,1.1-4.13,1.65-6.75,4.4-8.11,6.1l1.6-3.99c2.73-4.04,5.47-8.08,8.2-12.12Z"/>
    </clipPath>
    <clipPath id="clippath-1">
      <path class="cls-1" d="m734.31,484.02l-16.79-23.28-12.6-9.92-14.5-3.82h-17.94l-12.21,2.67-7.25,5.73-12.98,2.67,14.12,1.15s12.6,2.67,14.89,6.3,14.89,8.97,20.99,9.35c6.11.38,21.38,1.53,21.38,1.53,0,0,10.31-.76,12.21,1.91l10.69,5.73Z"/>
    </clipPath>
  </defs>
  <g id="Eye_makeup" data-name="Eye makeup">
    <g>
      <path class="cls-16" d="m101.61,5339.32s-17.07,92.93-10.75,114c0,0,1.49,86.38,10.75,102.18,0,0,27.17,48.46,131.46,57.94s168.55-20.02,209.63-38.98c0,0,40.03-44.75,60.05-97.17s8.43-87.18,8.43-87.18l-174.87-106.4-234.7,55.61Z"/>
      <path class="cls-16" d="m956.46,5286.72s-24.84,123.84-20.7,148.54,12.42,109.56,45.53,138.53,113.83,26.91,113.83,26.91c0,0,107.62-2.07,159.37-47.6s72.44-142.81,72.44-142.81l10.35-80.72-200.99-64.16-179.83,21.3Z"/>
      <path class="cls-43" d="m340.26,2094.15l27.65,123.88s17.7,94.02,6.64,127.2l-15.33,46.7s-4.13,12.42-1.45,19.13l-5.68,9.9-11.84,20.65-51.56,119.12s-14.76,21.48-6.71,59.06c0,0,2.68,36.24-8.05,57.72l-9.4,91.27-6.71,213.41s-1.34,144.96-9.4,169.12-16.11,183.88-16.11,183.88l-6.71,296.63s0,277.84-16.11,302l-46.98,174.49-30.87,283.21-24.16,324.82-28.19,284.55s4.03,46.98-17.45,83.22l-42.95,127.51s-17.45,80.53,0,92.61l44.44,64.52s282.07-80.21,314.82-42.78l182.47,112.29,169.14-152.06s29.69-37.44,30.98-103.27c1.29-65.84,24.13-675.35,24.13-675.35l40.31-633.72,33.59-380.68s109.72,405.31,100.77,492.64c0,0,13.44,167.95-15.67,214.97,0,0-17.91,165.71-2.24,311.26,15.67,145.55-35.83,463.53-35.83,463.53l-51.5,270.95s-11.2,49.26,47.02,87.33c0,0,98.53-64.94,185.86-40.31,0,0,8.96-24.63,190.34,55.98,0,0,91.81,24.63,172.42-6.72,0,0,17.91-89.57,73.9-132.12,0,0,35.83-479.21,26.87-597.89l1.44-1133.08s-50.7-595.65-55.18-687.46c0,0,11.2-257.52-96.29-432.18s-204.76-291.11-204.76-291.11l-312.51,38.07s-23.88-.65-78.19-9.34c0,0-56.48,3.26-77.12,17.38,0,0-68.43,22.81-180.3,8.69,0,0-92.32,13.03-117.31,6.52,0,0-84.95-9.33-90.27-36.16Z"/>
      <path class="cls-42" d="m748.11,2618.31s-360.48-189.4-386.95-192.46c0,0,369.64,165.98,386.95,181.26v11.2Z"/>
      <path class="cls-22" d="m855.03,2108.15s-39.78,33.6-73.35,271.88c0,0-6.07,182.27-12.18,201.62s-21.38,25.46-21.38,25.46l53.46,11.2s33.09,13.24,23.93-16.29-14.26-159.87-14.26-159.87c0,0,4.07-125.54,30.55-156.96l29.53-46.7s-33.6-57.02-37.68-56.01,6.47-40.72,61.79-76.87c0,0-22.07,16.79-40.4,2.54Z"/>
      <path class="cls-26" d="m1310.5,2263.8s-156.37,202.9-174.67,231.17l-26.61,27.11s19.96-17.96,21.62-7.99,22.45,21.62,22.45,21.62c0,0,7.48,7.66,11.64-13.63s-7.48-47.07,27.44-65.36,38.25-48.23,38.25-48.23c0,0,9.98-3.33,12.47,5.82s19.96-28.27,19.96-28.27l30.77-65.69s-25.7-.83,16.67-56.55Z"/>
      <path class="cls-13" d="m841.03,2172.59s92.34,142.88,118.58,162.32c26.24,19.44,97.2,106.92,97.2,106.92,0,0,28.19,49.57,34.99,54.43s32.08,0,32.08,0c0,0,23.18-13.46-14.65,25.83,0,0-5.76,17.91-47.55-40.41,0,0-45.68-84.56-151.63-192.45,0,0-95.25-120.52-69.01-116.64Z"/>
      <path class="cls-33" d="m385.24,2450.72s-95.37,209.19-86.14,264.57c0,0,79.99-196.89,86.14-184.58v-79.99Z"/>
      <path class="cls-34" d="m505.22,2530.7l-58.45,326.66s-36.92,320.51,29.23,0c0,0,25.33-139.41,19.89-172.08l9.34-154.58Z"/>
      <path class="cls-18" d="m462.62,2553.51c-2.46,42.38-7.13,87.78-14.93,135.65-19.98,122.72-54.8,227.1-90.58,310.65,0,0-56.97,178.96-80.27,282.54-2.36,10.51-4.54,19.18-5.11,19.07-2.41-.45,24.78-155.93,49.74-296.05-6.02,7.67-15.49,18.18-29.23,27.9-10.48,7.42-28.77,18.16-31.89,14.61-1.28-1.46-.97-6.44,15.88-26.96,3.55-3.17,8.76-8,14.68-14.23,18.46-19.43,29.22-37.07,37.2-50.49,20.02-33.64,38.71-65.04,50.49-90.35,25-53.69,57.29-162.37,70.44-306.4,3.8-57.45,6.84-86.14,9.12-86.08,2.19.06,3.68,26.77,4.46,80.12Z"/>
      <path class="cls-17" d="m1175.06,2473.39c18.06,80.59,33.69,171.59,43.24,271.73,13.71,143.73,11.71,272.78,3.07,382.14l-58.33,386.29-46.35,314.18-79.24,497.46,130.76-720.48,47.72-271.66c9.05-37.92,17.28-80.07,23.48-126.04,6.25-46.39,9.49-89.58,10.78-128.84l-7.86-277.15c-4.29-47.67-11.33-100.08-22.47-156.21-12.63-63.63-28.35-120.98-44.8-171.43Z"/>
      <path class="cls-33" d="m871.86,2684.35l-45.3-283.92s27.18,265.8,45.3,283.92Z"/>
      <path class="cls-33" d="m883.64,2719.68s49.83-19.93,64.32-45.3c0,0-3.62,9.97-64.32,45.3Z"/>
      <path class="cls-33" d="m915.8,2319.86s50.88,161.67,50.88,240.2l-50.88-240.2Z"/>
      <path class="cls-33" d="m871.86,2329.09l43.94,253.91s-13.87-210-43.94-253.91Z"/>
      <path class="cls-23" d="m1003.63,2456.05c3.33,52.52,5.25,108.05,5.2,166.33-.07,80.09-3.84,155.22-9.94,224.73-7.6,44.99-13.68,95.86-16.24,151.76-2.22,48.53-1.45,93.42,1.03,133.97,0,0,55.37,519.66,26.11,36.95,6.45-97.92,18-177.55,27.65-233.27,4.35-21.92,8.86-43.98,13.54-66.18,13.01-61.67,26.79-121.89,41.21-180.63,12.3-66.59,15.88-100.57,10.75-101.94-6.75-1.8-28.59,52.86-65.51,163.98,0,0,5.46-124.87-33.81-295.71Z"/>
      <path class="cls-8" d="m966.68,2473.39s41.09,172.21-18.72,442.22c-59.81,270.01-64.32,442.11-64.32,442.11,9.42-67.38,20.59-136.98,33.78-208.59,18.88-102.5,40.21-199.84,63.02-291.75,6.67-44.52,11.36-95.4,11.55-151.52.31-90.75-11.25-169.49-25.32-232.45Z"/>
      <path class="cls-36" d="m505.22,3800.67s-7.51-61.55,105.33-197.47c112.84-135.92,192.34-338.51,192.34-338.51,0,0,33.34-87.19,0-84.63-33.34,2.56-58.98-12.82-156.43,74.37-97.45,87.19-235.93,220.49-235.93,235.91,0,0,97.45-169.23,269.27-335.92,0,0,64.11-51.29,112.84-169.26,48.73-117.97,79.23-156.43,79.23-156.43l21.97,146.18s13.94-163.06,47.41-194.9c33.47-31.84-25.44,169.26-25.44,169.26,0,0-38.6,84.63-32.16,120.53,3.31,18.47,11.36,30.07,14.2,48.52,4.75,30.83-6.65,48.3-14.2,82.11-4.34,19.44-8.86,48.57-7.23,86.19-42.77,636.72-85.53,1273.44-128.3,1910.16-10.84-175.25-17.51-360.2-18.43-554-.93-195.12,4.06-381.33,13.35-557.76l83.53-616.03-233.67,517.7s-114.48,102.57,88.13-341.84c0,0,39.88-66.41-175.8,155.84Z"/>
      <path class="cls-41" d="m893.83,2887.78l-14.35-158.57s73.9-32.44,87.2-80.76c0,0-2.36,46.29-72.85,84.7,0,0,21.97,213.67,0,154.63Z"/>
      <path class="cls-28" d="m1218.66,2816.87s-24.61-267.67-53.72-294.78l1.25-23.91s44.45,99.54,52.47,318.69Z"/>
      <path class="cls-47" d="m1285.44,2310.49c47.65,59.86,66.31,114.11,74.61,149.22,9.88,41.79,11.15,79.84,11.81,145.95.62,61.77-.54,113.97-.54,113.97-1.3,58.58-3.44,85.65,4.7,87.88,7.96,2.18,22.82-20.25,29.79-39.83,5.58-15.69,4.82-25.97,7.22-83.64.42-10.03.8-18.22,1.04-23.43.27-45.79-5.06-83.43-10.39-110.4-2.71-13.7-10.34-84.74-57.03-159.42-57.66-92.23-52.82-92.43-52.82-92.43-2.8,4.04-5.59,8.08-8.39,12.12Z"/>
      <path class="cls-27" d="m1290.16,2328.18s64.94,84.63,59.6,191.21,16.2,408.73,22.1,86.26c0,0,9.62-135.03-42.66-228.24l-35.37-57.06-3.67,7.83Z"/>
      <path class="cls-29" d="m1225.24,2424.5c2.51,35.51,5.25,71.33,8.23,107.45,4.31,52.26,9.01,103.8,14.06,154.63,28.42,288.04,38.34,352.39,41.85,352.11,5.47-.43-1.53-157.97-3.94-212.24-5.89-132.53-9.46-111.74-9.79-175.01-.09-17.25-2.73-49.85-8.02-115.06-1.67-20.53-4.19-48.29-20.09-78.93-7.66-14.75-16.13-25.78-22.29-32.95Z"/>
      <path class="cls-25" d="m1445.25,2776.58s-27.71,163.51-47.5,524.84l-66.4,800.71s-52.55,688.76-293.91,898.55l-165.58,233.54,141.93-98.96s74.78-51.46,122.5-102.92,88.96-47.5,88.96-47.5c0,0,88.4,11.88,124.52-209.79,0,0,182.58-1009.39,143-1452.73l-47.5-545.74Z"/>
      <path class="cls-24" d="m871.86,5174.85c13.43-54.37,32.22-137.93,47.67-241.1,25.25-168.54,28.09-299.18,31.99-522.87,1.78-102.01,4.25-250.05,6.84-431.46.36-17.64.13-36.03-.84-55.1-3.59-70.84-16.48-133.33-32.13-185.77-8.03-21.02-15.75-43.88-22.67-68.52-13.73-48.86-21.37-94.08-25.45-133.71-2.2-61.15-4.41-122.31-6.61-183.46-.33,70.03,6.36,156.31,30.38,251.91,10.69,42.54,23.4,81.29,36.77,116.03,0,0,42.58,162.44,43.52,234,1.1,83.95-10.03,165.19,10.67,298.6,2.99,19.27,5.95,35.04,8,45.4-5.51-4.26-12.97-11.01-19.78-20.87-6.41-9.29-10.01-18.11-12.07-24.53-6,153.79-7.24,278.96-7.25,365.73,0,118.92,2.32,167.62-6.02,242.12-15.21,136.02-53.16,243.65-83.03,313.62Z"/>
      <path class="cls-45" d="m47.65,5234.23s210.2-125.98,497.38-37.47c0,0,103.62,26.34,153.95,50.02,0,0-53.29-153.95-470.73-127.3,0,0-195.95,19.5-228.24,145.94l47.65-31.19Z"/>
      <path class="cls-44" d="m1105.21,5095.79l61.53,100.97,83.44,86.96s160.6,99.25-144.98-187.93Z"/>
      <path class="cls-16" d="m658.08,886.75s-23.28,8.31,136.36,16.63c34.47.3,62.43-.64,82.52-1.66,31.1-1.58,68.37-4.59,87.19-6.12,2.76-.22,5.04-.41,6.56-.54l8.79-8.31,309,121.48s-25.99,161.72-28.16,279.4c0,0-13.72,141.5-7.22,158.11l20.94,63.53s-33.21,85.19-41.15,119.84l.72,76.53s-1.44,13-10.83,19.49c0,0-20.11,22.36-19.87,23.55.24,1.19-.24-1.19-.24-1.19,0,0-6.91,12.15-.24,20.01,0,0,19.3,18.58,3.57,32.88-15.72,14.3-3.93,15.78-3.93,15.78,0,0,12.52,4.51,6.51,13.02,0,0-8.52,15.53,1,21.54,0,0,37.07,40.07,22.04,48.09l-16.87,24.9s-8.57,11.14-5.14,19.71l-5.16,33.76-308.47,129.95s-27.47,9.61-43.96,0c0,0-70.05-13.43-100.27,4.27,0,0-53.57,20.45-164.83,10.84l-156.59,8.24s-88.73-8.27-92.48-46.54l-6.75-42.77-36.02-604.01,46.92-458.34,316.05-92.07Z"/>
      <path class="cls-7" d="m496.35,1209.07s95.38,111.66,172.83,120.77c0,0-115.03-66.05-123-82l-35.76-51.73-14.07,12.96Z"/>
      <path class="cls-11" d="m728.39,1436.89s180.1-74.57,215.89-131.81l-94.03,58.93s-101.36,15.94-111.61,44.42l-10.25,28.47Z"/>
      <path class="cls-39" d="m543.9,1715.92s35.1-20.5,314.22-10.25l104.88-2.87s-108.13-15.75-209.55-7.38l-152.61-2.45s-186.77,35.65-56.94,22.95Z"/>
      <path class="cls-48" d="m944.29,1726.17s158.8,17.08,183.85,6.83,36.44-27.19,36.44-27.19c0,0-19.01,21.68-89.97,23.77l-130.32-3.42Z"/>
      <path class="cls-10" d="m641.7,1039.62l78.73,122.8s6.83,26.19,51.25,26.19h79.72s-4.14-14.81-59.58-17.08c0,0-31.88,10.25-61.31-26.19l-88.8-105.72Z"/>
      <path class="cls-12" d="m1004.9,1082.42l-117.06,135.81s-38.72,53.53-82,56.94,25.06-34.17,25.06-34.17c0,0,69.47-38.72,99.08-87.69l69.16-86.8,5.76,15.9Z"/>
      <path class="cls-46" d="m1031.84,1123.14l-80.23,88.26s62.23-84.13,65.28-108.12l14.95,19.86Z"/>
      <path class="cls-9" d="m1195.96,1804.75s-9.74,20.5-67.82,18.22c0,0-67.19,22.78-82,31.89-14.81,9.11-66.05,14.81-66.05,14.81,0,0,44.42-11.39,120.72-52.39,0,0,36.44-20.5,53.53-12.53h41.63Z"/>
      <path class="cls-6" d="m1126.99,1773.22s71.49-19.92,76.18-45.71c0,0-33.99,14.65-41.6,22.85l-7.62,8.2-26.95,14.65Z"/>
      <path class="cls-40" d="m966.43,1767.36s71.49-8.79,129.5-8.79c0,0,41.02-2.34,69.15-25.2,0,0-36.92,22.27-92,16.99s-106.65,16.99-106.65,16.99Z"/>
      <path class="cls-38" d="m1150.43,1905.07l35.16-18.17s37.5,0,27.54-12.31-15.41-9.67-9.96-27.54-12.31,19.92-12.31,19.92c0,0-55.67,38.09-48.05,38.09h7.62Z"/>
      <path class="cls-1" d="m672.83,945.88s17.34,48.83,51.11,62.91c33.77,14.07,60.97,16.89,60.97,16.89,0,0-60.97-16.94-75.98-39.9-15.01-22.96-38.82-64.19-38.82-64.19l2.73,24.29Z"/>
      <path class="cls-15" d="m321.86,1721.04s66.24,10.1,98.14,15.23,155.72,4.19,155.72,4.19c0,0-156.66-4.33-166.04-12.95-9.38-8.62-86.84-14.42-86.84-14.42l-.98,7.95Z"/>
      <path id="Arms" class="cls-3" d="m1540.33,2196.44l98.91-66.83,181.77-163.06s219.2-229.89,224.54-248.6c0,0,15.71-43.4-16.96-86.8s-115.44-162.42-175.4-206.72c0,0-103.63-97.75-118.9-104.43,0,0-95.46-83.05-184.24-187.11,0,0-42-49.64-84.96-52.5s-147.97-51.55-147.97-51.55l-34.37,13.36s-24.82,154.65-24.82,190.93l-4.77,144.15s-3.82,71.6,6.68,86.87c0,0,6.68,20.05,8.59,34.37l72.87-96.03s14.84-15.28,34.92-12.22c0,0,23.13-1.31,41.03,24.88l203.1,170.13,112.36,92.94s-63.81,102.65-113.75,191.43c0,0-58.26,77.68-98.49,116.52l-49.94,41.61s-74.91,52.71-76.29,56.87-15.26,11.1-37.45,5.55c0,0-62.42-27.74-69.36-30.52-6.94-2.77-62.42-51.32-62.42-51.32,0,0,26.36-15.26,29.13-23.58s-19.42-29.13-19.42-29.13c0,0-24.58-7.68-53.77-6.01,0,0-26.69,1.67-45.05-4.17,0,0,31.7-9.18,31.7-15.85s-31.7-13.35-31.7-13.35c0,0-17.52-19.19-26.69-24.19,0,0,12.51-8.34-72.57-5.01,0,0-80.92-13.35-112.62,0,0,0-178.52.83-216.89-4.17,0,0-139.31-18.35-213.55-45.05,0,0-109.28-30.87-160.16-48.38l-20.85-7.51s16.68-88.01,16.68-163.5-1.06-202.16-.83-88.01-.23-114.15-.23-114.15l9.74-190.7-3.04-237.41h-60.87s-42.61-3.04-97.4,51.74c0,0-48.7,56.31-62.4,147.62l-60.87,447.42v208.49s12.17,126.31,18.26,130.88c0,0,9.13,36.52,51.74,44.13,0,0,581.34,57.83,710.7,50.22,0,0,31.96,1.52,44.13,19.78,0,0,27.39,31.96,60.87,45.66l86.75,42.61s15.22,7.61,42.61,28.92c0,0,50.22,36.52,82.18,45.66,0,0,93.99,29.03,29.61-25.66l-32.54-19.38s76.15-9.69,88.61,9,74.07,48.46,74.07,48.46c0,0,42.92,19.38,87.23,21.46,0,0,21.46-.69,56.07-26.31,0,0,42.23-29.08,46.38-28.38s40.31-34.06,40.31-34.06Z"/>
      <path id="Neck" class="cls-19" d="m657.49,782.8c-1.93,37.89-3.85,75.78-5.78,113.67l20.8,8.65,75.32,4.32h136.29c19.24-3.81,38.47-7.62,57.71-11.43,9.93-1.09,19.87-2.18,29.8-3.27-1.4-14.46-2.43-29.65-2.96-45.5-1.11-33.67.24-64.79,2.96-92.85v-7.78s-53.08,69.18-80.34,86.47c-12.86,6.37-26.53,12.68-41.02,18.78-8.37,3.52-16.58,6.8-24.62,9.85-11.58,1.15-24.83,1.63-39.4.7-30.29-1.93-55.33-9.25-73.56-16.36-18.4-21.75-36.79-43.5-55.19-65.25Z"/>
      <path class="cls-35" d="m883.64,36.29s-17.6-48-83.19-33.6c0,0-71.99,20.8-118.39,67.19,0,0-113.59,84.79-180.78,247.98,0,0-35.2,103.99-78.39,174.39,0,0-27.2,110.39,8,145.59l19.2,49.6s9.6,17.6-8,27.2c-17.6,9.6-29.22,8.06-29.22,8.06,0,0,36.49,8.49,53.11.09,16.62-8.4,14.96-16.71,14.96-16.71,0,0,44.87,51.52,19.94,68.14l-62.32,67.31s-10.8,20.77-63.98,19.11c0,0-45.7-2.49-83.1,72.29,0,0-27.42,26.59-29.08,90.57s10.8,86.42,10.8,86.42c0,0,6.65,20.77-6.65,41.55-13.3,20.77-3.32,70.63-.83,81.43,0,0,16.62,39.89,27.42,37.39,0,0-20.77-17.45-20.77-56.51s4.99-43.21,4.99-43.21c0,0-4.15,58.17,19.94,82.27,0,0,19.11,12.46,14.96,40.72s8.31,71.46,8.31,71.46c0,0,17.45-82.27,63.98-83.93,46.53-1.66,152.9-111.35,152.9-111.35,0,0,28.25-35.73,26.59-59.83,0,0,108.86-63.98,109.69-156.22-6.01-53.54-12.02-107.08-18.04-160.62l-63.4-94.49,408.83,36.56s-42.38,2.49-34.9,97.22c0,0,0,88.08,6.65,96.39,0,0,2.49,55.67-26.59,76.45,0,0-51.52,50.69-74.79,57.34,0,0,30.75,0,79.77-46.53,0,0,38.22-29.08,39.89-40.72,0,0-8.31,83.1,25.76,127.97,0,0,20.77,39.06,78.11,63.98,0,0-65.65,58.17-55.67,72.29,0,0-50.69,37.39-74.79,41.55,0,0-57.34,19.94-73.12,10.8l-65.65-20.77s57.34,32.41,87.25,37.39c0,0,47.36-2.49,68.97-14.13l66.48-36.56s78.94,62.32,83.93,69.8c4.99,7.48,40.72,34.9,42.38,47.36,0,0,10.8-23.27-57.34-85.59l-34.9-29.91s-2.49-9.14,25.76-26.59c0,0,23.27-39.89,51.52-44.87l19.11-9.97s-32.41,71.46-39.89,74.79l39.89-49.86s9.97-42.38,20.77-41.55c0,0,21.6-32.41,23.27-39.89,0,0,6.65,37.39,0,59.83,0,0,10.8-14.96,14.13-40.72,0,0-3.32-19.94-7.48-29.91,0,0,47.36,27.42,50.69,39.89,3.32,12.46,29.91,66.48-19.11,86.42,0,0-11.63,12.46-54.01,11.63l-45.7.83s44.87,8.31,57.34,9.14c0,0,38.22-2.49,63.98-22.44,0,0,23.27-38.22,22.44-53.18,0,0,.83-25.76-14.96-57.34,0,0,157.05,43.21,166.19-39.06,0,0-19.94-25.76-37.39-40.72-17.45-14.96-26.59-39.06-26.59-39.06,0,0,8.31-13.3-20.77-28.25,0,0-16.62-6.65-3.32-31.58,0,0,9.97-35.73-14.13-62.32,0,0-16.62-33.24-49.86-28.25-33.24,4.99-45.7-63.15-45.7-63.15,0,0-1.66-49.86,5.82-59,7.48-9.14,32.41-44.87,29.08-75.62-3.32-30.75-25.76-85.59-25.76-85.59l-77.28-201.09-59-150.4s-57.34-132.95-82.27-147.08c0,0-34.07-73.96-113.01-58.17,0,0-34.07,4.15-39.89,15.79l-12.76,4.13Z"/>
      <path class="cls-3" d="m567.43,645.38s25.65,83.05,87.93,147.78c0,0,47.63,68.39,114.8,76.94,0,0,81.83,28.09,200.29-101.37,0,0,58.62-53.74,69.61-123.35,0,0,32.98-76.94,24.43-170.98,0,0-4.89-85.49-69.61-184.42,0,0-42.75-73.28-113.58-78.16,0,0-12.21-12.21-39.08,0l-13.43,9.77-39.08-8.55s-34.2-8.55-51.3,14.66c0,0-35.42,25.65-48.85,72.06l-39.08,86.71s-25.65,68.39-54.96,94.04c0,0-28.09,42.75-28.09,83.05,0,0-7.86,60.56,0,81.83Z"/>
      <path class="cls-56" d="m866.2,726.11s-26.24,31.41-62.83,32.52c-36.59,1.11-50.26-7.76-50.26-7.76,0,0-39.54-21.8-46.57-41.39-1.05-1.99-2.22-4.02-3.51-6.1-4.03-6.48-8.39-11.84-12.54-16.22,10.67,10.19,20.48,14.04,27.5,15.67,15.91,3.69,25.5-2.2,48.29-1.04,11.13.56,20.15,2.54,26.03,4.12h16.79c14.48.39,24.27,2.44,30.65,4.32,6.18,1.82,12.44,3.35,18.61,5.2,3.13.94,5.55,1.71,9.03,2.17,5.56.73,10.3.28,13.7-.33-4.97,2.95-9.93,5.9-14.9,8.85Z"/>
      <path class="cls-54" d="m875.02,415.12l89.43-7.39s7.66.52,14.86,7.39l37.4,27.77,5.79,8.25c-2.36-1.25-4.89-2.48-7.6-3.65,0,0-4.1-1.78-8.63-3.31-15.41-5.2-33.72-7.69-33.72-7.69-22.64-3.07-44.16-2.53-54.69-2.05-9.39.18-20.87,1.17-33.68,4.01-10.91,2.42-20.33,5.63-28.07,8.82,3.44-9.42,6.88-18.83,10.31-28.25,2.86-1.3,5.72-2.61,8.58-3.91Z"/>
      <path class="cls-57" d="m738.69,429.43c-10.41-5.12-21.89-10.19-34.41-14.92-20.97-7.92-40.59-13.28-58-16.93,3.49-8.14,6.99-16.29,10.48-24.43,18.3,5.01,36.59,10.02,54.89,15.02l27.05,12.82,8.42,4.01,10.22,15.03v16.83l-18.63-7.42Z"/>
      <path class="cls-21" d="m754.85,624.84c.62.23,2.45.98,4.81,2.83,3.03,2.38,3.24,3.69,7.14,7.89,2.62,2.82,4.37,4.22,4.17,4.47-.37.48-5.97-5.78-13.78-6.13-3.65-.16-6.89-.08-6.89-.08-3.53.08-4.91.31-6.2-.7-1.32-1.03-1.98-2.89-1.72-4.49.51-3.16,4.48-4.52,6.58-4.81,2.31-.33,4.19.38,5.88,1.02Z"/>
      <path class="cls-21" d="m822.5,643.87c-1.32.72-2.08-.39-5.63-.84-1.07-.13-3.37.02-7.96.33-2.47.17-3.61.28-4.83.46-1.79.26-2.37.44-3.79.69-2.35.41-7.38,1.07-7.58.34-.18-.62,3.46-1.11,7.5-4.23,4.3-3.32,4.69-6.25,8.51-7.45.75-.23,2.42-.64,4.43-.84,1.16-.11,2.19-.21,3.53-.06,1.17.13,2.81.32,4.49,1.4.59.38,2.18,1.44,2.9,3.44.86,2.41.28,5.75-1.57,6.75Z"/>
      <path class="cls-55" d="m783.58,604.67c-2.1,3.88-8,3.25-8.8,3.17-1.33-.14-4.03-.43-5.56-2.61-1.4-2-.95-4.36-.77-5.31.58-3.08,3.07-7.17,6.86-7.39,2.94-.18,5.07,2.05,5.81,2.82,1.8,1.87,4.28,5.97,2.46,9.33Z"/>
      <ellipse class="cls-5" cx="747.57" cy="610.46" rx="9.76" ry="6.39"/>
      <path class="cls-50" d="m707.25,581.24c.34,33.63-30.09,72.3-65.15,71.86-45.16-.57-63.39-65.59-65.15-71.86-2.89-10.29-7.96-29.42.66-49.78,1.73-4.09,7.48-17.68,18.29-23.86,30.68-17.56,110.79,19.56,111.35,73.64Z"/>
      <path class="cls-50" d="m1028.43,609.59c-1.85,24.39-20.78,40.75-30.26,48.94-24.07,20.8-51.15,24.55-62.04,25.45-5.96-8.21-25.61-37.39-20.68-75.56,3.22-24.89,18.72-67.82,49.54-71.26,32.01-3.58,66.13,37.05,63.45,72.42Z"/>
      <path class="cls-14" d="m876.53,490.64c4.3-3.37,8.6-6.74,12.9-10.11,3.72-2.31,11.15-6.23,21.34-7.08,8.51-.71,15.34,1.02,19.3,2.35,8.41,3.27,16.82,6.53,25.23,9.8,4.27,2.29,9.47,4.68,15.53,6.72,5.16,1.74,9.95,2.89,14.16,3.66-7.75-.15-15.82-.12-24.18.14-14.43.45-28,1.52-40.64,3l-41.35.43c-1.18.19-2.55.52-4,1.1-4.13,1.65-6.75,4.4-8.11,6.1l1.6-3.99c2.73-4.04,5.47-8.08,8.2-12.12Z"/>
      <path class="cls-14" d="m734.31,484.02l-16.79-23.28-12.6-9.92-14.5-3.82h-17.94l-12.21,2.67-7.25,5.73-12.98,2.67,14.12,1.15s12.6,2.67,14.89,6.3,14.89,8.97,20.99,9.35c6.11.38,21.38,1.53,21.38,1.53,0,0,10.31-.76,12.21,1.91l10.69,5.73Z"/>
      <g class="cls-52">
        <g class="cls-2">
          <circle class="cls-31" cx="916.29" cy="482.01" r="20.13"/>
        </g>
      </g>
      <g class="cls-52">
        <g class="cls-49">
          <circle class="cls-31" cx="697.93" cy="456.38" r="20.23"/>
        </g>
      </g>
      <ellipse class="cls-32" cx="697.36" cy="460.79" rx="8.95" ry="8.36"/>
      <circle class="cls-37" cx="916.02" cy="484.02" r="9.24"/>
      <circle class="cls-4" cx="691.31" cy="454.95" r="4.14"/>
      <circle class="cls-4" cx="909.38" cy="481.23" r="4.94"/>
      <path class="cls-30" d="m988.41,496.05c-2.9-.04-5.81-.09-8.71-.13-4.18-1.55-8.44-3.22-12.79-5-6.31-2.59-12.34-5.25-18.07-7.93-1.4-.56-3.46-1.37-5.97-2.32-5.37-2.03-8.53-3.22-11.3-4.06-10.8-3.26-21.65-2.85-21.65-2.85-3.14.76-6.29,1.52-9.43,2.28-2.83,1.46-5.67,2.92-8.5,4.37-4.56,2.93-9.92,6.97-15.28,12.43-3.37,3.43-6.13,6.81-8.39,9.92-.63,2.06-1.03,3.07-1.21,3.03-.32-.07.08-3.52,1.2-10.34,5.8-4.73,11.6-9.46,17.41-14.19,0,0,11.85-8.21,19.19-9.35,0,0,4.66-1.52,5.5-2.91.85-1.39,1.55-4.04,1.55-4.04l.14,4.93s3.95,1.77,5.64,1.26c1.69-.51,5.08.13,7.76-5.43l.71-2.27s-2.54,6.32-.71,6.95c1.83.63,11.85,3.37,11.85,3.37,0,0,9.87,2.36,11.99,0l1.83-1.98s-4.09,5.3,2.68,5.81c0,0,1.55,2.02,6.21.25l2.54-1.14s-7.9,4.77.56,5.48l6.77-.93s-8.18,1.64-3.53,5.05c4.66,3.41,5.78,4.3,5.78,4.3,1.59,1.12,3.72,2.4,6.39,3.43,3.9,1.52,7.4,1.93,9.83,2.01Z"/>
      <path class="cls-20" d="m735.88,485.96s-.86-5.88-6.7-12.67l-11.68-16.73-14.27-9.56-11.93-2.98s-3.46-2.59-2.9-5.84c0,0-.46,4.11-.06,5.19s-7.38,0-7.38,0c0,0-4.58-.84-4.98-4.67l.48,4.62s-2.63-1.28-3.11-4.31v3.99s-5.58.96-6.14-2.95l-.56-1.88s-1.2,4.43,0,4.91c1.2.48-6.54,1.75-6.54,1.75,0,0-5.9,3.75-9.33-3.35,0,0,2.23,5.58,3.75,6.14,0,0-14.89,13.1-23.17,9.68,0,0,.17,2.02,9.12.66,8.94-1.36,12.53-2.58,12.53-2.58,1.3-1.09,2.6-2.17,3.9-3.26,1.9-1.07,4.25-2.19,7.03-3.12,4.08-1.36,7.74-1.87,10.56-2.03,2.74-.04,6.62.03,11.24.5,6.82.71,12.57,1.3,18.7,4.08,7.06,3.2,11.29,7.77,14.86,11.63,0,0,12.39,17.18,12.39,17.18h0s3.97,4.65,4.2,5.58Z"/>
      <path class="cls-58" d="m843.64,646.63s-12.54,3.02,11.61-8.36c0,0,10.68-12.31-5.34-25.54,0,0-5.81-7.66-16.26-6.73s-2.79-6.5-2.79-6.5c0,0,.46-12.08-3.72-23.69s4.64,0,4.64,0c0,0,7.9,21.6,17.65,26.01s16.49,19.27,16.49,19.27c0,0,.46,19.74-10.91,20.67l-11.38,4.88Z"/>
      <path class="cls-51" d="m843.38,498.87s7.96-27.64,27.84-38.05l19.89-10.41s-4.64-11.08-31.82-.69-29.83,54.26-29.83,54.26v27.5s4.6,13.1,13.92-32.6Z"/>
      <path class="cls-53" d="m799.23,507.57c.89-16.58-1.36-35.44-4.59-35.65-2.21-.14-4.43,8.48-5.93,14.29-3.08,11.95-3.47,21.94-3.41,37.48.08,19.88.12,29.82,1.47,30.04,3.09.5,11.17-22.09,12.46-46.17Z"/>
      <path class="cls-1" d="m742.91,499.64c-.39,4.84-.63,7.81.25,8.1,1.29.42,4.95-4.84,6.21-10.76,1.31-6.15-.04-12.77-1.52-12.92-1.25-.12-2.68,4.38-3.4,6.69-1.07,3.41-1.31,6.12-1.54,8.89Z"/>
      <path class="cls-59" d="m654,471.92s22.84,16.32,34.41,12.14l13.09-2.83-26.6-4.94s-30.8-10.46-20.9-4.37Z"/>
      <path class="cls-59" d="m891.11,505.79s23.15,9.04,39.48,4.86l17.48-4.86h-26.6l-25.08-2.36s-17.16-1.24-5.29,2.36Z"/>
    </g>
  </g>
</svg>